# xmcd
#
# Track frame offsets: 
#        150
#        15402
#        30545
#        45645
#        66970
#        81057
#        100967
#        115262
#        138710
#        157055
#        166295
#        183977
#        216217
#
# Disc length: 3174 seconds
#
# Revision: 2
# Processed by: cddbd v1.5.2PL0 Copyright (c) Steve Scherf et al.
# Submitted via: ExactAudioCopy v0.95b3
#
DISCID=ae0c640d
DTITLE=Hank Williams, Jr. - Almeria Club
DYEAR=2002
DGENRE=Country
TTITLE0=Last Pork Chop
TTITLE1=Go Girl Go
TTITLE2=The "F" Word
TTITLE3=If The GOod Lord's Willin' (And The Creeks Don't Rise)
TTITLE4=X-Treme Country
TTITLE5=Last Pork Chop (Acoustic)
TTITLE6=Big Top Women
TTITLE7=The Cheatin' Hotel
TTITLE8=Outdoor Lovin' Man
TTITLE9=Almeria Jam
TTITLE10=Tee Tot Song
TTITLE11=Cross On The Highway
TTITLE12=America Will Survive (Studio Version)
EXTD=
EXTT0=
EXTT1=
EXTT2=
EXTT3=
EXTT4=
EXTT5=
EXTT6=
EXTT7=
EXTT8=
EXTT9=
EXTT10=
EXTT11=
EXTT12=
PLAYORDER=
